<svg xmlns="http://www.w3.org/2000/svg" viewBox="0 0 114 98"><defs><style>.cls-1{fill-opacity:0}.cls-2{fill:#fff;}</style></defs><title>Packet Recorder_1</title><g id="Layer_2" data-name="Layer 2"><g id="artwork"><rect class="cls-1" width="114" height="98" rx="7" ry="7"/><path class="cls-2" d="M103,11V87H11V11h92m4-4H7V91H107V7Z"/><path class="cls-2" d="M57,21c-8,0-15.55,1.23-21.27,3.46-4.52,1.85-7.54,4.24-8.48,6.71a3.92,3.92,0,0,0-.15,1.06c0,5.42,12,11.23,29.91,11.23s29.91-5.81,29.91-11.23S74.89,21,57,21Z"/><path class="cls-2" d="M27.09,42.39V48.5l.05.33c.8,5.11,12.44,10.63,29.86,10.63s29.06-5.52,29.86-10.63l.05-.34v-6.1c-5.31,4.77-16.65,8-29.91,8S32.4,47.16,27.09,42.39Z"/><path class="cls-2" d="M27.09,57.2V63.3l.05.33c.8,5.11,12.44,10.63,29.86,10.63s29.06-5.52,29.86-10.63l.05-.34V57.2c-5.31,4.77-16.65,8-29.91,8S32.4,62,27.09,57.2Z"/><path class="cls-1" d="M66,70.49A17.21,17.21,0,1,1,76.21,54.76a17,17,0,0,1-1.47,6.89L86.32,73l-8.8,8.8Zm-7-26A10.25,10.25,0,1,0,69.24,54.76,10.25,10.25,0,0,0,59,44.51Z"/><path class="cls-2" d="M59,38.54A16.24,16.24,0,0,1,75.21,54.76a15.94,15.94,0,0,1-1.67,7.1L84.9,73l-7.39,7.39L66.19,69.29A16.21,16.21,0,1,1,59,38.54M59,66A11.25,11.25,0,1,0,47.76,54.76,11.26,11.26,0,0,0,59,66m0-29.47a18.22,18.22,0,1,0,6.77,35.13L76.11,81.85l1.41,1.39,1.4-1.4,7.39-7.39L87.74,73,86.3,71.61,75.93,61.41a18,18,0,0,0,1.28-6.65A18.24,18.24,0,0,0,59,36.54ZM59,64a9.25,9.25,0,1,1,9.25-9.25A9.25,9.25,0,0,1,59,64Z"/></g></g></svg>